<svg width="14" height="15" viewBox="0 0 14 15" fill="none" xmlns="http://www.w3.org/2000/svg">
<g clip-path="url(#clip0_860_1643)">
<path d="M10.2085 9.77344H10.7918C11.1418 9.77344 11.3752 10.0068 11.3752 10.3568V10.9401C11.3752 11.2901 11.6085 11.5234 11.9585 11.5234C12.3085 11.5234 12.5418 11.2901 12.5418 10.9401V2.77344L11.3752 1.60677M3.50016 1.02344H9.3335C9.80016 1.02344 10.2085 1.43177 10.2085 1.89844V12.6901H2.62516V1.89844C2.62516 1.43177 3.0335 1.02344 3.50016 1.02344ZM2.3335 12.6901H10.5002C10.9668 12.6901 11.3752 13.0984 11.3752 13.5651V14.4401H1.4585V13.5651C1.4585 13.0984 1.86683 12.6901 2.3335 12.6901Z" stroke="#2D2D2D" stroke-linecap="round" stroke-linejoin="round"/>
<path d="M12.5415 2.77279L11.3748 3.93945V4.81445C11.3748 5.28112 11.7832 5.68945 12.2498 5.68945H12.5415M3.7915 2.18945H9.0415V5.68945H3.7915V2.18945Z" stroke="#2D2D2D" stroke-linecap="round" stroke-linejoin="round"/>
</g>
<defs>
<clipPath id="clip0_860_1643">
<rect width="14" height="14" fill="white" transform="translate(0 0.731445)"/>
</clipPath>
</defs>
</svg>
