<svg width="177" height="43" viewBox="0 0 177 43" fill="none" xmlns="http://www.w3.org/2000/svg">
<path d="M129.885 36.131H132.583L134.038 26.7644C134.736 28.6741 136.676 29.8563 139.07 29.8563C143.526 29.8563 146.891 26.0672 146.891 20.8534C146.891 16.9733 144.436 14.2755 140.95 14.2755C138.616 14.2755 136.827 15.3061 135.554 17.2765L135.766 14.6695H133.281L129.885 36.131ZM134.736 23.2178C134.736 19.5499 137.161 16.7005 140.252 16.7005C142.647 16.7005 144.163 18.398 144.163 21.0049C144.163 24.6425 141.768 27.4312 138.707 27.4312C136.191 27.4312 134.736 25.855 134.736 23.2178Z" fill="#9B51FF"/>
<path d="M151.858 29.8563C154.162 29.8563 156.254 28.7953 157.254 27.0675L157.133 29.4925H159.497L160.982 20.1562C161.558 16.5489 159.436 14.2755 155.496 14.2755C151.798 14.2755 149.403 16.1246 148.888 19.368H151.404C151.707 17.4583 153.01 16.4883 155.253 16.4883C157.587 16.4883 158.709 17.7008 158.315 19.9137L158.254 20.3077L153.616 20.6715C149.706 21.0049 147.463 22.8843 147.463 25.8853C147.463 28.28 149.221 29.8563 151.858 29.8563ZM152.828 27.7041C151.191 27.7041 150.221 26.9159 150.221 25.6428C150.221 23.8846 151.525 22.7934 154.192 22.5812L157.981 22.2781L157.86 23.0662C157.436 25.9156 155.496 27.7041 152.828 27.7041Z" fill="#9B51FF"/>
<path d="M159.22 36.1007C159.887 36.2826 160.614 36.3735 161.554 36.3735C164.04 36.3735 165.555 35.0398 166.738 32.8269L176.468 14.6695H173.497L167.314 26.6431L164.949 14.6695H162.191L165.555 30.0685L164.676 31.7357C163.737 33.5544 162.585 33.8272 161.403 33.8272H159.584L159.22 36.1007Z" fill="#9B51FF"/>
<path d="M43.6365 36.1309H48.1531L49.5475 26.8552C50.3659 28.2193 52.3666 29.2196 54.4581 29.2196C59.0051 29.2196 62.3698 25.5821 62.3698 20.247C62.3698 16.1245 59.7326 13.2751 56.1557 13.2751C54.0641 13.2751 52.4878 14.1238 51.3966 15.5485L51.4269 13.6995H47.1831L43.6365 36.1309ZM50.4569 21.9445C50.4569 19.3073 52.3666 17.246 54.7006 17.246C56.6407 17.246 57.8532 18.5798 57.8532 20.5501C57.8532 23.1874 55.9435 25.2486 53.6094 25.2486C51.6694 25.2486 50.4569 23.9149 50.4569 21.9445Z" fill="white"/>
<path d="M74.471 13.6995L73.1675 21.9748C72.8341 24.0967 71.6822 25.188 69.9241 25.188C68.3175 25.188 67.3778 23.8846 67.7112 21.8536L69.0147 13.6995H64.4981L63.0127 22.9449C62.4671 26.4005 64.6193 29.2499 67.984 29.2499C69.8028 29.2499 71.0153 28.6437 72.2885 27.219L72.3491 28.8559H76.5929L78.9876 13.6995H74.471Z" fill="white"/>
<path d="M91.4125 13.6691C90.8669 13.5176 90.2606 13.4569 89.6847 13.4569C87.775 13.4569 86.2594 14.427 85.4106 15.9123L85.5015 13.6995H81.2577L78.863 28.8559H83.3796L84.4406 22.1264C84.8953 19.1558 86.6837 17.9129 89.2906 17.9129H90.7456L91.4125 13.6691Z" fill="white"/>
<path d="M88.9908 36.1309H93.5074L94.9018 26.8552C95.7203 28.2193 97.7209 29.2196 99.8125 29.2196C104.359 29.2196 107.724 25.5821 107.724 20.247C107.724 16.1245 105.087 13.2751 101.51 13.2751C99.4184 13.2751 97.8422 14.1238 96.7509 15.5485L96.7812 13.6995H92.5374L88.9908 36.1309ZM95.8112 21.9445C95.8112 19.3073 97.7209 17.246 100.055 17.246C101.995 17.246 103.208 18.5798 103.208 20.5501C103.208 23.1874 101.298 25.2486 98.9637 25.2486C97.0237 25.2486 95.8112 23.9149 95.8112 21.9445Z" fill="white"/>
<path d="M112.511 28.8559L116.119 6H111.602L107.995 28.8559H112.511Z" fill="white"/>
<path d="M122.2 29.2196C125.777 29.2196 128.93 27.0068 129.96 23.7633H125.535C124.959 24.8849 123.867 25.5214 122.443 25.5214C120.503 25.5214 119.533 24.5211 119.411 22.4902L130.112 22.4295L130.294 21.2473C131.051 16.3973 128.445 13.2751 123.746 13.2751C118.835 13.2751 115.107 17.2157 115.107 22.4295C115.107 26.734 117.714 29.2196 122.2 29.2196ZM123.473 16.9429C125.322 16.9429 126.323 18.0039 126.05 19.6711H119.866C120.533 18.0342 121.867 16.9429 123.473 16.9429Z" fill="white"/>
<path d="M13.8965 13.617V24.4513L6.62378 26.4757V13.617H13.8965Z" fill="white"/>
<path d="M1.67273 32.8061L0 24.4644L22.9706 18.0615C24.8615 17.5339 26.3161 15.859 26.6741 13.795C26.8923 12.529 26.6741 11.5069 25.9692 10.4914C25.1301 9.28462 23.7427 8.56585 22.2657 8.56585H0.839161V0H22.2601C25.9469 0 29.3483 1.83978 31.586 5.05115C33.6951 8.07788 34.4615 11.6981 33.7958 15.5161C32.8671 20.8376 29.2755 25.1107 24.6434 26.4031L1.67273 32.8061Z" fill="#9B51FF"/>
<path d="M6.62378 33.6172L13.8965 31.5862V42.4336H6.62378V33.6172Z" fill="white"/>
</svg>