<svg width="48" height="48" viewBox="0 0 48 48" fill="none" xmlns="http://www.w3.org/2000/svg">
<rect x="0.121795" y="0.122771" width="47.7564" height="47.7564" rx="10.109" fill="#363A4E"/>
<g filter="url(#filter0_i_2214_6682)">
<path d="M22.2524 19.6716V25.7748L18.1752 26.9152V19.6716H22.2524Z" fill="white"/>
<path d="M15.3997 30.4814L14.4619 25.7823L27.3394 22.1754C28.3995 21.8782 29.2149 20.9347 29.4156 19.772C29.5379 19.0588 29.4156 18.483 29.0205 17.911C28.55 17.2312 27.7722 16.8263 26.9442 16.8263H14.9324V12.001H26.9411C29.0079 12.001 30.9148 13.0374 32.1693 14.8464C33.3516 16.5514 33.7813 18.5908 33.4081 20.7415C32.8875 23.7393 30.874 26.1464 28.2772 26.8744L15.3997 30.4814Z" fill="white"/>
<path d="M18.1752 30.9381L22.2524 29.794V35.9046H18.1752V30.9381Z" fill="white"/>
</g>
<rect x="0.121795" y="0.122771" width="47.7564" height="47.7564" rx="10.109" stroke="url(#paint0_linear_2214_6682)" stroke-width="0.24359"/>
<defs>
<filter id="filter0_i_2214_6682" x="14.4619" y="12.001" width="19.0771" height="24.6312" filterUnits="userSpaceOnUse" color-interpolation-filters="sRGB">
<feFlood flood-opacity="0" result="BackgroundImageFix"/>
<feBlend mode="normal" in="SourceGraphic" in2="BackgroundImageFix" result="shape"/>
<feColorMatrix in="SourceAlpha" type="matrix" values="0 0 0 0 0 0 0 0 0 0 0 0 0 0 0 0 0 0 127 0" result="hardAlpha"/>
<feOffset dy="0.727835"/>
<feGaussianBlur stdDeviation="0.363917"/>
<feComposite in2="hardAlpha" operator="arithmetic" k2="-1" k3="1"/>
<feColorMatrix type="matrix" values="0 0 0 0 0.152941 0 0 0 0 0.156863 0 0 0 0 0.294118 0 0 0 0.3 0"/>
<feBlend mode="normal" in2="shape" result="effect1_innerShadow_2214_6682"/>
</filter>
<linearGradient id="paint0_linear_2214_6682" x1="5.84616" y1="1.0779" x2="56.6897" y2="120.001" gradientUnits="userSpaceOnUse">
<stop stop-color="white" stop-opacity="0.17"/>
<stop offset="1" stop-color="white" stop-opacity="0"/>
</linearGradient>
</defs>
</svg>
